<?xml version="1.0"?>
<svg version="1.1" xmlns="http://www.w3.org/2000/svg" width="510px" height="200px" style=""><path fill="#" d="M26.32,97.816l-25.256,35.84l31.584,0l0-2.8l-25.256,0l25.256-36.512l-30.912,0l0,3.472l24.584,0z M40.25504,133.656l3.528,0l0-39.368l-3.528,0l0,39.368z M71.15808,97.76l10.808,0l0-3.528l-10.808,0q-8.064,0-13.664,5.712q-5.656,5.768-5.656,14.392q0,8.008,5.656,13.664t13.664,5.656l7.168,0l3.64,0l0-3.584l0-17.92l-3.64,0l-8.568,0l0,3.584l8.568,0l0,14.336l-7.168,0q-6.384,0-11.032-4.648t-4.648-11.088q0-7,4.648-11.816q4.592-4.76,11.032-4.76z M90.30112,133.488l3.472,0l0-23.688q0-4.704,3.584-8.288t8.288-3.584q4.592,0,8.288,3.584q3.528,3.528,3.528,8.288l0,23.688l3.584,0l0-23.688q0-4.816,3.584-8.288q3.584-3.584,8.232-3.584q4.704,0,8.288,3.584t3.584,8.288l0,23.688l3.472,0l0-23.688q0-6.384-4.48-10.864t-10.864-4.48q-4.2,0-7.896,2.296q-3.752,2.352-5.376,5.992q-2.184-3.752-5.88-5.992q-3.864-2.296-8.064-2.296q-6.328,0-10.808,4.48q-4.536,4.536-4.536,10.864l0,23.688z M171.54816,94.176q-6.272,0-10.528,4.536q-4.2,4.48-4.2,10.92l0,23.968l3.528,0l0-17.584l22.512,0l0,17.584l3.528,0l0-23.968q0-6.44-4.2-10.92q-4.368-4.536-10.64-4.536z M182.86016,112.544l-22.512,0l0-2.912q0-4.816,3.248-8.344q3.304-3.584,7.952-3.584t8.064,3.584q3.248,3.528,3.248,8.344l0,2.912z M271.93824,94.4l-3.528,0l0,23.8q0,4.704-3.584,8.288t-8.288,3.584t-8.288-3.584t-3.584-8.288l0-23.8l-3.528,0l0,23.8q0,4.704-3.584,8.288q-3.696,3.584-8.344,3.584q-4.704,0-8.288-3.584t-3.584-8.288l0-23.8l-3.528,0l0,23.8q0,6.216,4.592,10.808t10.808,4.592q4.256,0,8.008-2.352q3.696-2.296,5.32-5.992q2.016,3.584,5.936,5.992q3.808,2.352,8.064,2.352q6.272,0,10.864-4.592q4.536-4.536,4.536-10.808l0-23.8z M295.28128,94.176q-6.272,0-10.528,4.536q-4.2,4.48-4.2,10.92l0,23.968l3.528,0l0-17.584l22.512,0l0,17.584l3.528,0l0-23.968q0-6.44-4.2-10.92q-4.368-4.536-10.64-4.536z M306.59328,112.544l-22.512,0l0-2.912q0-4.816,3.248-8.344q3.304-3.584,7.952-3.584t8.064,3.584q3.248,3.528,3.248,8.344l0,2.912z M347.35232,94.4l-30.352,0l0,3.416l13.776,0l0,35.896l3.472,0l0-35.896l13.104,0l0-3.416z M383.46336,133.6l0-3.528l-9.968,0q-6.944,0-11.648-4.704t-4.704-11.648q0-6.384,4.704-10.976t11.648-4.592l9.968,0l0-3.64l-9.968,0q-8.456,0-14.168,5.6q-5.712,5.544-5.712,13.608q0,8.568,5.712,14.168q5.6,5.712,14.168,5.712l9.968,0z M421.8144,94.288l-3.528,0l0,17.92l-23.632,0l0-17.92l-3.528,0l0,39.312l3.528,0l0-17.864l23.632,0l0,17.864l3.528,0l0-39.312z M433.95744,122.848q0-2.688,1.904-4.872q1.904-2.296,4.592-2.296l0.728,0l10.472,0l0-3.472l-10.472,0l-0.728,0q-2.856-0.56-4.676-2.464t-1.82-4.536q0-3.304,1.932-5.236t5.292-1.932l19.04,0l0-3.528l-19.04,0q-4.312,0-7.504,3.192q-3.192,3.08-3.192,7.504q0,2.8,1.064,5.096t3.136,3.304q-2.072,1.512-3.136,3.976t-1.064,5.264q0,4.368,3.192,7.448q3.248,3.248,7.504,3.248l19.04,0l0-3.696l-19.04,0q-3.36,0-5.292-1.904t-1.932-5.096z M476.34048,98.488l21.112,0l0-4.256l-21.112,0q-4.144,0-6.944,3.248q-2.856,3.304-2.856,8.008q0,4.256,2.856,7.392q2.8,3.192,6.944,3.192l5.6,0l5.712,0q2.52,0,4.48,2.128q1.848,2.24,1.848,4.872q0,3.136-1.82,5.096t-4.508,1.96l-21.112,0l0,3.472l21.112,0q4.2,0,7-2.912t2.8-7.616q0-4.256-2.8-7.392q-2.856-3.136-7-3.136l-5.712,0l-5.6,0q-2.576,0-4.424-2.24q-1.904-2.072-1.904-4.816q0-3.136,1.82-5.068t4.508-1.932z"/><path fill="#" d=""/></svg>
